<?xml version="1.0" encoding="UTF-8" standalone="no"?>
<!DOCTYPE svg PUBLIC "-//W3C//DTD SVG 1.1//EN"
 "http://www.w3.org/Graphics/SVG/1.1/DTD/svg11.dtd">
<!-- Generated by graphviz version 12.2.1 (20241206.2353)
 -->
<!-- Title: Inventive Step: Preconditions Pages: 1 -->
<svg width="1894pt" height="492pt"
 viewBox="0.00 0.00 1894.41 492.00" xmlns="http://www.w3.org/2000/svg" xmlns:xlink="http://www.w3.org/1999/xlink">
<g id="graph0" class="graph" transform="scale(1 1) rotate(0) translate(4 488)">
<title>Inventive Step: Preconditions</title>
<polygon fill="white" stroke="none" points="-4,4 -4,-488 1890.41,-488 1890.41,4 -4,4"/>
<!-- Contested -->
<g id="node1" class="node">
<title>Contested</title>
<polygon fill="white" stroke="black" points="590.37,-208.8 510.55,-208.8 510.55,-172.8 590.37,-172.8 590.37,-208.8"/>
<text text-anchor="middle" x="550.46" y="-186.6" font-family="Arial" font-size="14.00">Contested</text>
</g>
<!-- SkilledIn -->
<g id="node2" class="node">
<title>SkilledIn</title>
<polygon fill="white" stroke="black" points="68.92,-295.2 0,-295.2 0,-259.2 68.92,-259.2 68.92,-295.2"/>
<text text-anchor="middle" x="34.46" y="-273" font-family="Arial" font-size="14.00">SkilledIn</text>
</g>
<!-- Average -->
<g id="node3" class="node">
<title>Average</title>
<polygon fill="white" stroke="black" points="155.53,-295.2 87.39,-295.2 87.39,-259.2 155.53,-259.2 155.53,-295.2"/>
<text text-anchor="middle" x="121.46" y="-273" font-family="Arial" font-size="14.00">Average</text>
</g>
<!-- Aware -->
<g id="node4" class="node">
<title>Aware</title>
<polygon fill="white" stroke="black" points="229.3,-295.2 173.62,-295.2 173.62,-259.2 229.3,-259.2 229.3,-295.2"/>
<text text-anchor="middle" x="201.46" y="-273" font-family="Arial" font-size="14.00">Aware</text>
</g>
<!-- Access -->
<g id="node5" class="node">
<title>Access</title>
<polygon fill="white" stroke="black" points="308.02,-295.2 246.9,-295.2 246.9,-259.2 308.02,-259.2 308.02,-295.2"/>
<text text-anchor="middle" x="277.46" y="-273" font-family="Arial" font-size="14.00">Access</text>
</g>
<!-- CombinationAttempt -->
<g id="node6" class="node">
<title>CombinationAttempt</title>
<polygon fill="white" stroke="black" points="1321.88,-208.8 1179.04,-208.8 1179.04,-172.8 1321.88,-172.8 1321.88,-208.8"/>
<text text-anchor="middle" x="1250.46" y="-186.6" font-family="Arial" font-size="14.00">CombinationAttempt</text>
</g>
<!-- CombinationMotive -->
<g id="node7" class="node">
<title>CombinationMotive</title>
<polygon fill="white" stroke="black" points="1475.38,-208.8 1339.54,-208.8 1339.54,-172.8 1475.38,-172.8 1475.38,-208.8"/>
<text text-anchor="middle" x="1407.46" y="-186.6" font-family="Arial" font-size="14.00">CombinationMotive</text>
</g>
<!-- BasisToAssociate -->
<g id="node8" class="node">
<title>BasisToAssociate</title>
<polygon fill="white" stroke="black" points="1621.09,-208.8 1493.82,-208.8 1493.82,-172.8 1621.09,-172.8 1621.09,-208.8"/>
<text text-anchor="middle" x="1557.46" y="-186.6" font-family="Arial" font-size="14.00">BasisToAssociate</text>
</g>
<!-- RelevantPriorArt -->
<g id="node9" class="node">
<title>RelevantPriorArt</title>
<ellipse fill="white" stroke="black" cx="961.46" cy="-104.4" rx="81.88" ry="18"/>
<text text-anchor="middle" x="961.46" y="-100.2" font-family="Arial" font-size="14.00">RelevantPriorArt</text>
</g>
<!-- SameField -->
<g id="node10" class="node">
<title>SameField</title>
<polygon fill="white" stroke="black" points="839.92,-36 757,-36 757,0 839.92,0 839.92,-36"/>
<text text-anchor="middle" x="798.46" y="-13.8" font-family="Arial" font-size="14.00">SameField</text>
</g>
<!-- RelevantPriorArt&#45;&gt;SameField -->
<g id="edge1" class="edge">
<title>RelevantPriorArt&#45;&gt;SameField</title>
<path fill="none" stroke="#333333" d="M930.42,-87.33C905.41,-74.38 869.95,-56.02 842.08,-41.59"/>
<polygon fill="#333333" stroke="#333333" points="833.28,-37.03 844.23,-37.63 836.64,-38.77 842.16,-41.63 842.16,-41.63 842.16,-41.63 836.64,-38.77 840.09,-45.62 833.28,-37.03"/>
<text text-anchor="middle" x="893.1" y="-57.6" font-family="Times,serif" font-size="12.00">+</text>
</g>
<!-- SimilarField -->
<g id="node11" class="node">
<title>SimilarField</title>
<polygon fill="white" stroke="black" points="947.02,-36 857.9,-36 857.9,0 947.02,0 947.02,-36"/>
<text text-anchor="middle" x="902.46" y="-13.8" font-family="Arial" font-size="14.00">SimilarField</text>
</g>
<!-- RelevantPriorArt&#45;&gt;SimilarField -->
<g id="edge2" class="edge">
<title>RelevantPriorArt&#45;&gt;SimilarField</title>
<path fill="none" stroke="#333333" d="M949.52,-86.32C941.34,-74.61 930.32,-58.86 921,-45.53"/>
<polygon fill="#333333" stroke="#333333" points="915.28,-37.34 924.7,-42.96 917.45,-40.44 921.01,-45.54 921.01,-45.54 921.01,-45.54 917.45,-40.44 917.32,-48.12 915.28,-37.34"/>
<text text-anchor="middle" x="938.87" y="-57.6" font-family="Times,serif" font-size="12.00">+</text>
</g>
<!-- SimilarPurpose -->
<g id="node12" class="node">
<title>SimilarPurpose</title>
<polygon fill="white" stroke="black" points="1075.92,-36 965,-36 965,0 1075.92,0 1075.92,-36"/>
<text text-anchor="middle" x="1020.46" y="-13.8" font-family="Arial" font-size="14.00">SimilarPurpose</text>
</g>
<!-- RelevantPriorArt&#45;&gt;SimilarPurpose -->
<g id="edge3" class="edge">
<title>RelevantPriorArt&#45;&gt;SimilarPurpose</title>
<path fill="none" stroke="#333333" d="M973.4,-86.32C981.58,-74.61 992.6,-58.86 1001.92,-45.53"/>
<polygon fill="#333333" stroke="#333333" points="1007.64,-37.34 1005.59,-48.12 1005.47,-40.44 1001.91,-45.54 1001.91,-45.54 1001.91,-45.54 1005.47,-40.44 998.22,-42.96 1007.64,-37.34"/>
<text text-anchor="middle" x="997.87" y="-57.6" font-family="Times,serif" font-size="12.00">+</text>
</g>
<!-- SimilarEffect -->
<g id="node13" class="node">
<title>SimilarEffect</title>
<polygon fill="white" stroke="black" points="1188.74,-36 1094.17,-36 1094.17,0 1188.74,0 1188.74,-36"/>
<text text-anchor="middle" x="1141.46" y="-13.8" font-family="Arial" font-size="14.00">SimilarEffect</text>
</g>
<!-- RelevantPriorArt&#45;&gt;SimilarEffect -->
<g id="edge4" class="edge">
<title>RelevantPriorArt&#45;&gt;SimilarEffect</title>
<path fill="none" stroke="#333333" d="M994.89,-87.72C1022.87,-74.6 1063.12,-55.73 1094.36,-41.08"/>
<polygon fill="#333333" stroke="#333333" points="1103.06,-37 1095.92,-45.32 1099.64,-38.61 1094.01,-41.25 1094.01,-41.25 1094.01,-41.25 1099.64,-38.61 1092.1,-37.17 1103.06,-37"/>
<text text-anchor="middle" x="1065.62" y="-57.6" font-family="Times,serif" font-size="12.00">+</text>
</g>
<!-- DocumentaryEvidence -->
<g id="node14" class="node">
<title>DocumentaryEvidence</title>
<ellipse fill="white" stroke="black" cx="716.46" cy="-190.8" rx="108.19" ry="18"/>
<text text-anchor="middle" x="716.46" y="-186.6" font-family="Arial" font-size="14.00">DocumentaryEvidence</text>
</g>
<!-- SinglePublication -->
<g id="node15" class="node">
<title>SinglePublication</title>
<polygon fill="white" stroke="black" points="472.16,-122.4 348.76,-122.4 348.76,-86.4 472.16,-86.4 472.16,-122.4"/>
<text text-anchor="middle" x="410.46" y="-100.2" font-family="Arial" font-size="14.00">SinglePublication</text>
</g>
<!-- DocumentaryEvidence&#45;&gt;SinglePublication -->
<g id="edge5" class="edge">
<title>DocumentaryEvidence&#45;&gt;SinglePublication</title>
<path fill="none" stroke="#333333" d="M662.1,-174.81C612.27,-161.06 538.1,-140.61 483.18,-125.46"/>
<polygon fill="#333333" stroke="#333333" points="473.64,-122.83 484.48,-121.15 477.29,-123.83 483.28,-125.49 483.28,-125.49 483.28,-125.49 477.29,-123.83 482.09,-129.82 473.64,-122.83"/>
<text text-anchor="middle" x="583.78" y="-144" font-family="Times,serif" font-size="12.00">&#45;</text>
</g>
<!-- Textbook -->
<g id="node16" class="node">
<title>Textbook</title>
<polygon fill="white" stroke="black" points="563.25,-122.4 489.67,-122.4 489.67,-86.4 563.25,-86.4 563.25,-122.4"/>
<text text-anchor="middle" x="526.46" y="-100.2" font-family="Arial" font-size="14.00">Textbook</text>
</g>
<!-- DocumentaryEvidence&#45;&gt;Textbook -->
<g id="edge6" class="edge">
<title>DocumentaryEvidence&#45;&gt;Textbook</title>
<path fill="none" stroke="#333333" d="M679.82,-173.53C649.53,-160.07 606.31,-140.87 573.46,-126.28"/>
<polygon fill="#333333" stroke="#333333" points="564.74,-122.41 575.71,-122.35 568.2,-123.94 573.88,-126.47 573.88,-126.47 573.88,-126.47 568.2,-123.94 572.05,-130.58 564.74,-122.41"/>
<text text-anchor="middle" x="636.22" y="-144" font-family="Times,serif" font-size="12.00">+</text>
</g>
<!-- TechnicalSurvey -->
<g id="node17" class="node">
<title>TechnicalSurvey</title>
<polygon fill="white" stroke="black" points="701.2,-122.4 581.71,-122.4 581.71,-86.4 701.2,-86.4 701.2,-122.4"/>
<text text-anchor="middle" x="641.46" y="-100.2" font-family="Arial" font-size="14.00">TechnicalSurvey</text>
</g>
<!-- DocumentaryEvidence&#45;&gt;TechnicalSurvey -->
<g id="edge7" class="edge">
<title>DocumentaryEvidence&#45;&gt;TechnicalSurvey</title>
<path fill="none" stroke="#333333" d="M701.28,-172.72C690.58,-160.67 676.06,-144.33 664,-130.77"/>
<polygon fill="#333333" stroke="#333333" points="657.68,-123.65 667.69,-128.14 660.19,-126.48 664.32,-131.13 664.32,-131.13 664.32,-131.13 660.19,-126.48 660.96,-134.12 657.68,-123.65"/>
<text text-anchor="middle" x="686.83" y="-144" font-family="Times,serif" font-size="12.00">+</text>
</g>
<!-- PublicationNewField -->
<g id="node18" class="node">
<title>PublicationNewField</title>
<polygon fill="white" stroke="black" points="861.88,-122.4 719.04,-122.4 719.04,-86.4 861.88,-86.4 861.88,-122.4"/>
<text text-anchor="middle" x="790.46" y="-100.2" font-family="Arial" font-size="14.00">PublicationNewField</text>
</g>
<!-- DocumentaryEvidence&#45;&gt;PublicationNewField -->
<g id="edge8" class="edge">
<title>DocumentaryEvidence&#45;&gt;PublicationNewField</title>
<path fill="none" stroke="#333333" d="M731.43,-172.72C741.9,-160.79 756.05,-144.64 767.88,-131.15"/>
<polygon fill="#333333" stroke="#333333" points="774.45,-123.66 771.24,-134.15 771.96,-126.5 767.86,-131.18 767.86,-131.18 767.86,-131.18 771.96,-126.5 764.47,-128.21 774.45,-123.66"/>
<text text-anchor="middle" x="761.27" y="-144" font-family="Times,serif" font-size="12.00">+</text>
</g>
<!-- CommonKnowledge -->
<g id="node19" class="node">
<title>CommonKnowledge</title>
<ellipse fill="white" stroke="black" cx="716.46" cy="-277.2" rx="98" ry="18"/>
<text text-anchor="middle" x="716.46" y="-273" font-family="Arial" font-size="14.00">CommonKnowledge</text>
</g>
<!-- CommonKnowledge&#45;&gt;Contested -->
<g id="edge10" class="edge">
<title>CommonKnowledge&#45;&gt;Contested</title>
<path fill="none" stroke="#333333" d="M684.45,-259.93C658.83,-246.9 622.63,-228.49 594.31,-214.1"/>
<polygon fill="#333333" stroke="#333333" points="585.74,-209.74 596.69,-210.26 589.11,-211.45 594.65,-214.27 594.65,-214.27 594.65,-214.27 589.11,-211.45 592.61,-218.28 585.74,-209.74"/>
<text text-anchor="middle" x="645.4" y="-230.4" font-family="Times,serif" font-size="12.00">&#45;</text>
</g>
<!-- CommonKnowledge&#45;&gt;DocumentaryEvidence -->
<g id="edge9" class="edge">
<title>CommonKnowledge&#45;&gt;DocumentaryEvidence</title>
<path fill="none" stroke="#333333" d="M716.46,-258.71C716.46,-247.62 716.46,-233.02 716.46,-220.28"/>
<polygon fill="#333333" stroke="#333333" points="716.46,-210.48 720.96,-220.48 716.46,-214.27 716.46,-220.48 716.46,-220.48 716.46,-220.48 716.46,-214.27 711.96,-220.48 716.46,-210.48"/>
<text text-anchor="middle" x="719.84" y="-230.4" font-family="Times,serif" font-size="12.00">+</text>
</g>
<!-- Person -->
<g id="node20" class="node">
<title>Person</title>
<ellipse fill="white" stroke="black" cx="367.46" cy="-277.2" rx="41.63" ry="18"/>
<text text-anchor="middle" x="367.46" y="-273" font-family="Arial" font-size="14.00">Person</text>
</g>
<!-- Individual -->
<g id="node21" class="node">
<title>Individual</title>
<polygon fill="white" stroke="black" points="227.03,-208.8 151.88,-208.8 151.88,-172.8 227.03,-172.8 227.03,-208.8"/>
<text text-anchor="middle" x="189.46" y="-186.6" font-family="Arial" font-size="14.00">Individual</text>
</g>
<!-- Person&#45;&gt;Individual -->
<g id="edge11" class="edge">
<title>Person&#45;&gt;Individual</title>
<path fill="none" stroke="#333333" d="M340.04,-263.2C312.37,-250.08 269.14,-229.58 236.09,-213.91"/>
<polygon fill="#333333" stroke="#333333" points="227.29,-209.74 238.25,-209.95 230.7,-211.36 236.32,-214.02 236.32,-214.02 236.32,-214.02 230.7,-211.36 234.39,-218.09 227.29,-209.74"/>
<text text-anchor="middle" x="292.5" y="-230.4" font-family="Times,serif" font-size="12.00">+</text>
</g>
<!-- ResearchTeam -->
<g id="node22" class="node">
<title>ResearchTeam</title>
<polygon fill="white" stroke="black" points="356.31,-208.8 244.61,-208.8 244.61,-172.8 356.31,-172.8 356.31,-208.8"/>
<text text-anchor="middle" x="300.46" y="-186.6" font-family="Arial" font-size="14.00">ResearchTeam</text>
</g>
<!-- Person&#45;&gt;ResearchTeam -->
<g id="edge12" class="edge">
<title>Person&#45;&gt;ResearchTeam</title>
<path fill="none" stroke="#333333" d="M354.54,-259.93C345.06,-247.98 331.98,-231.51 321.06,-217.76"/>
<polygon fill="#333333" stroke="#333333" points="315.02,-210.14 324.76,-215.17 317.37,-213.1 321.23,-217.97 321.23,-217.97 321.23,-217.97 317.37,-213.1 317.71,-220.77 315.02,-210.14"/>
<text text-anchor="middle" x="341.35" y="-230.4" font-family="Times,serif" font-size="12.00">+</text>
</g>
<!-- ProductionTeam -->
<g id="node23" class="node">
<title>ProductionTeam</title>
<polygon fill="white" stroke="black" points="492.82,-208.8 374.1,-208.8 374.1,-172.8 492.82,-172.8 492.82,-208.8"/>
<text text-anchor="middle" x="433.46" y="-186.6" font-family="Arial" font-size="14.00">ProductionTeam</text>
</g>
<!-- Person&#45;&gt;ProductionTeam -->
<g id="edge13" class="edge">
<title>Person&#45;&gt;ProductionTeam</title>
<path fill="none" stroke="#333333" d="M380.18,-259.93C389.53,-247.98 402.41,-231.51 413.16,-217.76"/>
<polygon fill="#333333" stroke="#333333" points="419.11,-210.15 416.5,-220.79 416.78,-213.12 412.95,-218.02 412.95,-218.02 412.95,-218.02 416.78,-213.12 409.41,-215.25 419.11,-210.15"/>
<text text-anchor="middle" x="407.79" y="-230.4" font-family="Times,serif" font-size="12.00">+</text>
</g>
<!-- SkilledPerson -->
<g id="node24" class="node">
<title>SkilledPerson</title>
<ellipse fill="white" stroke="black" cx="239.46" cy="-367.6" rx="70.08" ry="18"/>
<ellipse fill="none" stroke="black" cx="239.46" cy="-367.6" rx="74.08" ry="22"/>
<text text-anchor="middle" x="239.46" y="-363.4" font-family="Arial" font-size="14.00">SkilledPerson</text>
</g>
<!-- SkilledPerson&#45;&gt;SkilledIn -->
<g id="edge14" class="edge">
<title>SkilledPerson&#45;&gt;SkilledIn</title>
<path fill="none" stroke="#333333" d="M198.47,-348.92C164.01,-334.07 114.84,-312.86 79.33,-297.55"/>
<polygon fill="#333333" stroke="#333333" points="70.36,-293.68 81.33,-293.51 73.84,-295.18 79.55,-297.64 79.55,-297.64 79.55,-297.64 73.84,-295.18 77.76,-301.77 70.36,-293.68"/>
<text text-anchor="middle" x="146.49" y="-316.8" font-family="Times,serif" font-size="12.00">+</text>
</g>
<!-- SkilledPerson&#45;&gt;Average -->
<g id="edge15" class="edge">
<title>SkilledPerson&#45;&gt;Average</title>
<path fill="none" stroke="#333333" d="M212.98,-346.76C195.34,-333.55 172.07,-316.12 153.41,-302.13"/>
<polygon fill="#333333" stroke="#333333" points="145.64,-296.31 156.34,-298.71 148.66,-298.58 153.64,-302.31 153.64,-302.31 153.64,-302.31 148.66,-298.58 150.94,-305.91 145.64,-296.31"/>
<text text-anchor="middle" x="187.38" y="-316.8" font-family="Times,serif" font-size="12.00">+</text>
</g>
<!-- SkilledPerson&#45;&gt;Aware -->
<g id="edge16" class="edge">
<title>SkilledPerson&#45;&gt;Aware</title>
<path fill="none" stroke="#333333" d="M230.45,-345.65C225.31,-333.68 218.8,-318.54 213.25,-305.63"/>
<polygon fill="#333333" stroke="#333333" points="209.35,-296.56 217.43,-303.97 210.84,-300.03 213.3,-305.74 213.3,-305.74 213.3,-305.74 210.84,-300.03 209.16,-307.52 209.35,-296.56"/>
<text text-anchor="middle" x="224.98" y="-316.8" font-family="Times,serif" font-size="12.00">+</text>
</g>
<!-- SkilledPerson&#45;&gt;Access -->
<g id="edge17" class="edge">
<title>SkilledPerson&#45;&gt;Access</title>
<path fill="none" stroke="#333333" d="M248.46,-345.65C253.61,-333.68 260.12,-318.54 265.67,-305.63"/>
<polygon fill="#333333" stroke="#333333" points="269.57,-296.56 269.75,-307.52 268.07,-300.03 265.62,-305.74 265.62,-305.74 265.62,-305.74 268.07,-300.03 261.48,-303.97 269.57,-296.56"/>
<text text-anchor="middle" x="265.25" y="-316.8" font-family="Times,serif" font-size="12.00">+</text>
</g>
<!-- SkilledPerson&#45;&gt;Person -->
<g id="edge18" class="edge">
<title>SkilledPerson&#45;&gt;Person</title>
<path fill="none" stroke="#333333" d="M267.87,-346.98C288.43,-332.78 316.19,-313.61 337.17,-299.11"/>
<polygon fill="#333333" stroke="#333333" points="345.29,-293.51 339.62,-302.9 342.18,-295.66 337.06,-299.19 337.06,-299.19 337.06,-299.19 342.18,-295.66 334.5,-295.49 345.29,-293.51"/>
<text text-anchor="middle" x="318.31" y="-316.8" font-family="Times,serif" font-size="12.00">+</text>
</g>
<!-- ClosestPriorArt -->
<g id="node25" class="node">
<title>ClosestPriorArt</title>
<ellipse fill="white" stroke="black" cx="1085.46" cy="-190.8" rx="75.97" ry="18"/>
<text text-anchor="middle" x="1085.46" y="-186.6" font-family="Arial" font-size="14.00">ClosestPriorArt</text>
</g>
<!-- ClosestPriorArt&#45;&gt;RelevantPriorArt -->
<g id="edge19" class="edge">
<title>ClosestPriorArt&#45;&gt;RelevantPriorArt</title>
<path fill="none" stroke="#333333" d="M1061.26,-173.33C1042.31,-160.43 1015.75,-142.35 994.79,-128.09"/>
<polygon fill="#333333" stroke="#333333" points="986.61,-122.52 997.41,-124.42 989.73,-124.65 994.87,-128.14 994.87,-128.14 994.87,-128.14 989.73,-124.65 992.34,-131.86 986.61,-122.52"/>
<text text-anchor="middle" x="1034.27" y="-144" font-family="Times,serif" font-size="12.00">+</text>
</g>
<!-- SingleReference -->
<g id="node26" class="node">
<title>SingleReference</title>
<polygon fill="white" stroke="black" points="1181.21,-122.4 1061.7,-122.4 1061.7,-86.4 1181.21,-86.4 1181.21,-122.4"/>
<text text-anchor="middle" x="1121.46" y="-100.2" font-family="Arial" font-size="14.00">SingleReference</text>
</g>
<!-- ClosestPriorArt&#45;&gt;SingleReference -->
<g id="edge20" class="edge">
<title>ClosestPriorArt&#45;&gt;SingleReference</title>
<path fill="none" stroke="#333333" d="M1092.74,-172.72C1097.64,-161.24 1104.2,-145.87 1109.81,-132.71"/>
<polygon fill="#333333" stroke="#333333" points="1113.58,-123.86 1113.8,-134.83 1112.1,-127.34 1109.66,-133.06 1109.66,-133.06 1109.66,-133.06 1112.1,-127.34 1105.52,-131.3 1113.58,-123.86"/>
<text text-anchor="middle" x="1109" y="-144" font-family="Times,serif" font-size="12.00">+</text>
</g>
<!-- MinModifications -->
<g id="node27" class="node">
<title>MinModifications</title>
<polygon fill="white" stroke="black" points="1319.59,-122.4 1199.33,-122.4 1199.33,-86.4 1319.59,-86.4 1319.59,-122.4"/>
<text text-anchor="middle" x="1259.46" y="-100.2" font-family="Arial" font-size="14.00">MinModifications</text>
</g>
<!-- ClosestPriorArt&#45;&gt;MinModifications -->
<g id="edge21" class="edge">
<title>ClosestPriorArt&#45;&gt;MinModifications</title>
<path fill="none" stroke="#333333" d="M1117.78,-174.12C1144.71,-161.06 1183.4,-142.29 1213.54,-127.67"/>
<polygon fill="#333333" stroke="#333333" points="1222.31,-123.42 1215.28,-131.83 1218.91,-125.07 1213.31,-127.78 1213.31,-127.78 1213.31,-127.78 1218.91,-125.07 1211.35,-123.73 1222.31,-123.42"/>
<text text-anchor="middle" x="1186.26" y="-144" font-family="Times,serif" font-size="12.00">+</text>
</g>
<!-- AssessedBy -->
<g id="node28" class="node">
<title>AssessedBy</title>
<polygon fill="white" stroke="black" points="1430.98,-122.4 1337.94,-122.4 1337.94,-86.4 1430.98,-86.4 1430.98,-122.4"/>
<text text-anchor="middle" x="1384.46" y="-100.2" font-family="Arial" font-size="14.00">AssessedBy</text>
</g>
<!-- ClosestPriorArt&#45;&gt;AssessedBy -->
<g id="edge22" class="edge">
<title>ClosestPriorArt&#45;&gt;AssessedBy</title>
<path fill="none" stroke="#333333" d="M1133.97,-176.72C1180.78,-164.01 1253.93,-143.93 1326.96,-122.8"/>
<polygon fill="#333333" stroke="#333333" points="1336.56,-120.02 1328.21,-127.12 1332.93,-121.07 1326.96,-122.8 1326.96,-122.8 1326.96,-122.8 1332.93,-121.07 1325.7,-118.48 1336.56,-120.02"/>
<text text-anchor="middle" x="1265.24" y="-144" font-family="Times,serif" font-size="12.00">+</text>
</g>
<!-- CombinationDocuments -->
<g id="node29" class="node">
<title>CombinationDocuments</title>
<ellipse fill="white" stroke="black" cx="1407.46" cy="-277.2" rx="114.09" ry="18"/>
<text text-anchor="middle" x="1407.46" y="-273" font-family="Arial" font-size="14.00">CombinationDocuments</text>
</g>
<!-- CombinationDocuments&#45;&gt;CombinationAttempt -->
<g id="edge23" class="edge">
<title>CombinationDocuments&#45;&gt;CombinationAttempt</title>
<path fill="none" stroke="#333333" d="M1376.44,-259.53C1352.43,-246.62 1318.93,-228.61 1292.51,-214.4"/>
<polygon fill="#333333" stroke="#333333" points="1283.83,-209.74 1294.77,-210.51 1287.17,-211.53 1292.64,-214.48 1292.64,-214.48 1292.64,-214.48 1287.17,-211.53 1290.51,-218.44 1283.83,-209.74"/>
<text text-anchor="middle" x="1341.74" y="-230.4" font-family="Times,serif" font-size="12.00">+</text>
</g>
<!-- CombinationDocuments&#45;&gt;CombinationMotive -->
<g id="edge25" class="edge">
<title>CombinationDocuments&#45;&gt;CombinationMotive</title>
<path fill="none" stroke="#333333" d="M1407.46,-258.71C1407.46,-247.62 1407.46,-233.02 1407.46,-220.28"/>
<polygon fill="#333333" stroke="#333333" points="1407.46,-210.48 1411.96,-220.48 1407.46,-214.27 1407.46,-220.48 1407.46,-220.48 1407.46,-220.48 1407.46,-214.27 1402.96,-220.48 1407.46,-210.48"/>
<text text-anchor="middle" x="1410.84" y="-230.4" font-family="Times,serif" font-size="12.00">+</text>
</g>
<!-- CombinationDocuments&#45;&gt;BasisToAssociate -->
<g id="edge26" class="edge">
<title>CombinationDocuments&#45;&gt;BasisToAssociate</title>
<path fill="none" stroke="#333333" d="M1437.09,-259.53C1459.93,-246.67 1491.76,-228.77 1516.95,-214.59"/>
<polygon fill="#333333" stroke="#333333" points="1525.53,-209.76 1519.03,-218.59 1522.24,-211.62 1516.82,-214.67 1516.82,-214.67 1516.82,-214.67 1522.24,-211.62 1514.61,-210.74 1525.53,-209.76"/>
<text text-anchor="middle" x="1494.82" y="-230.4" font-family="Times,serif" font-size="12.00">+</text>
</g>
<!-- CombinationDocuments&#45;&gt;ClosestPriorArt -->
<g id="edge27" class="edge">
<title>CombinationDocuments&#45;&gt;ClosestPriorArt</title>
<path fill="none" stroke="#333333" d="M1350.26,-261.21C1292.67,-246.11 1204.19,-222.92 1145.58,-207.56"/>
<polygon fill="#333333" stroke="#333333" points="1136.18,-205.09 1146.99,-203.28 1139.84,-206.05 1145.85,-207.63 1145.85,-207.63 1145.85,-207.63 1139.84,-206.05 1144.71,-211.98 1136.18,-205.09"/>
<text text-anchor="middle" x="1269.12" y="-230.4" font-family="Times,serif" font-size="12.00">+</text>
</g>
<!-- SameFieldCPA -->
<g id="node30" class="node">
<title>SameFieldCPA</title>
<polygon fill="white" stroke="black" points="1750.31,-208.8 1638.61,-208.8 1638.61,-172.8 1750.31,-172.8 1750.31,-208.8"/>
<text text-anchor="middle" x="1694.46" y="-186.6" font-family="Arial" font-size="14.00">SameFieldCPA</text>
</g>
<!-- CombinationDocuments&#45;&gt;SameFieldCPA -->
<g id="edge24" class="edge">
<title>CombinationDocuments&#45;&gt;SameFieldCPA</title>
<path fill="none" stroke="#333333" d="M1459.77,-260.82C1507.01,-246.92 1576.77,-226.41 1627.96,-211.35"/>
<polygon fill="#333333" stroke="#333333" points="1637.42,-208.57 1629.1,-215.71 1633.79,-209.64 1627.83,-211.39 1627.83,-211.39 1627.83,-211.39 1633.79,-209.64 1626.56,-207.08 1637.42,-208.57"/>
<text text-anchor="middle" x="1571.53" y="-230.4" font-family="Times,serif" font-size="12.00">+</text>
</g>
<!-- SimilarFieldCPA -->
<g id="node31" class="node">
<title>SimilarFieldCPA</title>
<polygon fill="white" stroke="black" points="1886.41,-208.8 1768.5,-208.8 1768.5,-172.8 1886.41,-172.8 1886.41,-208.8"/>
<text text-anchor="middle" x="1827.46" y="-186.6" font-family="Arial" font-size="14.00">SimilarFieldCPA</text>
</g>
<!-- CombinationDocuments&#45;&gt;SimilarFieldCPA -->
<g id="edge28" class="edge">
<title>CombinationDocuments&#45;&gt;SimilarFieldCPA</title>
<path fill="none" stroke="#333333" d="M1481.87,-263.2C1550.84,-250.86 1656.54,-231.24 1757.47,-209.18"/>
<polygon fill="#333333" stroke="#333333" points="1766.98,-207.09 1758.18,-213.63 1763.28,-207.9 1757.21,-209.24 1757.21,-209.24 1757.21,-209.24 1763.28,-207.9 1756.24,-204.84 1766.98,-207.09"/>
<text text-anchor="middle" x="1676.25" y="-230.4" font-family="Times,serif" font-size="12.00">+</text>
</g>
<!-- ClosestPriorArtDocuments -->
<g id="node32" class="node">
<title>ClosestPriorArtDocuments</title>
<ellipse fill="white" stroke="black" cx="873.46" cy="-367.6" rx="124.81" ry="18"/>
<ellipse fill="none" stroke="black" cx="873.46" cy="-367.6" rx="128.81" ry="22"/>
<text text-anchor="middle" x="873.46" y="-363.4" font-family="Arial" font-size="14.00">ClosestPriorArtDocuments</text>
</g>
<!-- ClosestPriorArtDocuments&#45;&gt;CommonKnowledge -->
<g id="edge30" class="edge">
<title>ClosestPriorArtDocuments&#45;&gt;CommonKnowledge</title>
<path fill="none" stroke="#333333" d="M837.04,-346.1C812.57,-332.32 780.36,-314.18 755.38,-300.11"/>
<polygon fill="#333333" stroke="#333333" points="746.91,-295.35 757.83,-296.33 750.21,-297.2 755.63,-300.25 755.63,-300.25 755.63,-300.25 750.21,-297.2 753.42,-304.17 746.91,-295.35"/>
<text text-anchor="middle" x="803.05" y="-316.8" font-family="Times,serif" font-size="12.00">+</text>
</g>
<!-- ClosestPriorArtDocuments&#45;&gt;ClosestPriorArt -->
<g id="edge31" class="edge">
<title>ClosestPriorArtDocuments&#45;&gt;ClosestPriorArt</title>
<path fill="none" stroke="#333333" d="M898.61,-345.86C938.16,-313.26 1014.66,-250.17 1056.46,-215.71"/>
<polygon fill="#333333" stroke="#333333" points="1064.14,-209.38 1059.28,-219.22 1061.22,-211.79 1056.42,-215.74 1056.42,-215.74 1056.42,-215.74 1061.22,-211.79 1053.56,-212.27 1064.14,-209.38"/>
<text text-anchor="middle" x="1003.92" y="-273.6" font-family="Times,serif" font-size="12.00">+</text>
</g>
<!-- ClosestPriorArtDocuments&#45;&gt;CombinationDocuments -->
<g id="edge29" class="edge">
<title>ClosestPriorArtDocuments&#45;&gt;CombinationDocuments</title>
<path fill="none" stroke="#333333" d="M964.04,-351.6C1063.42,-335.15 1221.83,-308.93 1319.96,-292.68"/>
<polygon fill="#333333" stroke="#333333" points="1329.54,-291.1 1320.41,-297.17 1325.81,-291.72 1319.67,-292.73 1319.67,-292.73 1319.67,-292.73 1325.81,-291.72 1318.94,-288.29 1329.54,-291.1"/>
<text text-anchor="middle" x="1191.67" y="-316.8" font-family="Times,serif" font-size="12.00">+</text>
</g>
<!-- Valid -->
<g id="node33" class="node">
<title>Valid</title>
<polygon fill="white" stroke="black" points="527.65,-454.54 527.65,-469.46 507.03,-480 477.88,-480 457.27,-469.46 457.27,-454.54 477.88,-444 507.03,-444 527.65,-454.54"/>
<polygon fill="none" stroke="black" points="531.65,-452.1 531.65,-471.9 508,-484 476.92,-484 453.27,-471.9 453.27,-452.1 476.92,-440 508,-440 531.65,-452.1"/>
<text text-anchor="middle" x="492.46" y="-457.8" font-family="Arial" font-size="14.00">Valid</text>
</g>
<!-- Valid&#45;&gt;SkilledPerson -->
<g id="edge32" class="edge">
<title>Valid&#45;&gt;SkilledPerson</title>
<path fill="none" stroke="#333333" d="M458.86,-448.73C417.2,-433.51 345.57,-407.35 295.53,-389.08"/>
<polygon fill="#333333" stroke="#333333" points="286.34,-385.72 297.28,-384.93 289.89,-387.02 295.73,-389.15 295.73,-389.15 295.73,-389.15 289.89,-387.02 294.19,-393.38 286.34,-385.72"/>
<text text-anchor="middle" x="384.49" y="-411.2" font-family="Times,serif" font-size="12.00">+</text>
</g>
<!-- Valid&#45;&gt;ClosestPriorArtDocuments -->
<g id="edge33" class="edge">
<title>Valid&#45;&gt;ClosestPriorArtDocuments</title>
<path fill="none" stroke="#333333" d="M531.44,-451.55C592.07,-436.84 710.3,-408.17 790.58,-388.7"/>
<polygon fill="#333333" stroke="#333333" points="799.97,-386.42 791.31,-393.15 796.3,-387.31 790.25,-388.78 790.25,-388.78 790.25,-388.78 796.3,-387.31 789.19,-384.41 799.97,-386.42"/>
<text text-anchor="middle" x="709.15" y="-411.2" font-family="Times,serif" font-size="12.00">+</text>
</g>
</g>
</svg>
