<?xml version="1.0" encoding="UTF-8" standalone="no"?>
<!DOCTYPE svg PUBLIC "-//W3C//DTD SVG 1.1//EN"
 "http://www.w3.org/Graphics/SVG/1.1/DTD/svg11.dtd">
<!-- Generated by graphviz version 12.2.1 (20241206.2353)
 -->
<!-- Title: example_problem Pages: 1 -->
<svg width="601pt" height="586pt"
 viewBox="0.00 0.00 600.70 586.40" xmlns="http://www.w3.org/2000/svg" xmlns:xlink="http://www.w3.org/1999/xlink">
<g id="graph0" class="graph" transform="scale(1 1) rotate(0) translate(4 582.4)">
<title>example_problem</title>
<polygon fill="white" stroke="none" points="-4,4 -4,-582.4 596.7,-582.4 596.7,4 -4,4"/>
<!-- Encompassed -->
<g id="node1" class="node">
<title>Encompassed</title>
<polygon fill="white" stroke="black" points="285.92,-36 181.21,-36 181.21,0 285.92,0 285.92,-36"/>
<text text-anchor="middle" x="233.57" y="-13.8" font-family="Arial" font-size="14.00">Encompassed</text>
</g>
<!-- ScopeOfClaim -->
<g id="node2" class="node">
<title>ScopeOfClaim</title>
<polygon fill="white" stroke="black" points="409.69,-36 303.44,-36 303.44,0 409.69,0 409.69,-36"/>
<text text-anchor="middle" x="356.57" y="-13.8" font-family="Arial" font-size="14.00">ScopeOfClaim</text>
</g>
<!-- Hindsight -->
<g id="node3" class="node">
<title>Hindsight</title>
<polygon fill="white" stroke="black" points="191.75,-122.4 117.38,-122.4 117.38,-86.4 191.75,-86.4 191.75,-122.4"/>
<text text-anchor="middle" x="154.57" y="-100.2" font-family="Arial" font-size="14.00">Hindsight</text>
</g>
<!-- BasicFormulation -->
<g id="node4" class="node">
<title>BasicFormulation</title>
<ellipse fill="white" stroke="black" cx="295.57" cy="-104.4" rx="85.64" ry="18"/>
<text text-anchor="middle" x="295.57" y="-100.2" font-family="Arial" font-size="14.00">BasicFormulation</text>
</g>
<!-- BasicFormulation&#45;&gt;Encompassed -->
<g id="edge1" class="edge">
<title>BasicFormulation&#45;&gt;Encompassed</title>
<path fill="none" stroke="#333333" d="M283.02,-86.32C274.34,-74.5 262.62,-58.55 252.77,-45.14"/>
<polygon fill="#333333" stroke="#333333" points="247.03,-37.33 256.58,-42.72 249.27,-40.37 252.95,-45.39 252.95,-45.39 252.95,-45.39 249.27,-40.37 249.32,-48.05 247.03,-37.33"/>
<text text-anchor="middle" x="271.66" y="-57.6" font-family="Times,serif" font-size="12.00">+</text>
</g>
<!-- BasicFormulation&#45;&gt;ScopeOfClaim -->
<g id="edge2" class="edge">
<title>BasicFormulation&#45;&gt;ScopeOfClaim</title>
<path fill="none" stroke="#333333" d="M307.91,-86.32C316.45,-74.5 327.98,-58.55 337.67,-45.14"/>
<polygon fill="#333333" stroke="#333333" points="343.32,-37.33 341.11,-48.07 341.1,-40.4 337.46,-45.44 337.46,-45.44 337.46,-45.44 341.1,-40.4 333.81,-42.8 343.32,-37.33"/>
<text text-anchor="middle" x="333.1" y="-57.6" font-family="Times,serif" font-size="12.00">+</text>
</g>
<!-- WellFormed -->
<g id="node5" class="node">
<title>WellFormed</title>
<ellipse fill="white" stroke="black" cx="167.57" cy="-190.8" rx="63.08" ry="18"/>
<text text-anchor="middle" x="167.57" y="-186.6" font-family="Arial" font-size="14.00">WellFormed</text>
</g>
<!-- WellFormed&#45;&gt;Hindsight -->
<g id="edge3" class="edge">
<title>WellFormed&#45;&gt;Hindsight</title>
<path fill="none" stroke="#333333" d="M164.94,-172.72C163.2,-161.47 160.89,-146.47 158.89,-133.49"/>
<polygon fill="#333333" stroke="#333333" points="157.42,-123.95 163.39,-133.15 158,-127.69 158.95,-133.83 158.95,-133.83 158.95,-133.83 158,-127.69 154.5,-134.52 157.42,-123.95"/>
<text text-anchor="middle" x="163.84" y="-144" font-family="Times,serif" font-size="12.00">&#45;</text>
</g>
<!-- WellFormed&#45;&gt;BasicFormulation -->
<g id="edge4" class="edge">
<title>WellFormed&#45;&gt;BasicFormulation</title>
<path fill="none" stroke="#333333" d="M191.94,-173.73C211.53,-160.81 239.28,-142.51 261.14,-128.1"/>
<polygon fill="#333333" stroke="#333333" points="269.39,-122.66 263.52,-131.92 266.23,-124.74 261.04,-128.17 261.04,-128.17 261.04,-128.17 266.23,-124.74 258.56,-124.41 269.39,-122.66"/>
<text text-anchor="middle" x="242.61" y="-144" font-family="Times,serif" font-size="12.00">+</text>
</g>
<!-- ConstrainedProblem -->
<g id="node6" class="node">
<title>ConstrainedProblem</title>
<ellipse fill="white" stroke="black" cx="291.57" cy="-277.2" rx="99.07" ry="18"/>
<text text-anchor="middle" x="291.57" y="-273" font-family="Arial" font-size="14.00">ConstrainedProblem</text>
</g>
<!-- ConstrainedProblem&#45;&gt;WellFormed -->
<g id="edge5" class="edge">
<title>ConstrainedProblem&#45;&gt;WellFormed</title>
<path fill="none" stroke="#333333" d="M266.77,-259.32C247.65,-246.31 221.03,-228.19 200.18,-214"/>
<polygon fill="#333333" stroke="#333333" points="192.07,-208.48 202.86,-210.38 195.19,-210.6 200.33,-214.1 200.33,-214.1 200.33,-214.1 195.19,-210.6 197.8,-217.82 192.07,-208.48"/>
<text text-anchor="middle" x="240.37" y="-230.4" font-family="Times,serif" font-size="12.00">+</text>
</g>
<!-- NonTechnicalContribution -->
<g id="node7" class="node">
<title>NonTechnicalContribution</title>
<polygon fill="white" stroke="black" points="426.11,-208.8 249.02,-208.8 249.02,-172.8 426.11,-172.8 426.11,-208.8"/>
<text text-anchor="middle" x="337.57" y="-186.6" font-family="Arial" font-size="14.00">NonTechnicalContribution</text>
</g>
<!-- ConstrainedProblem&#45;&gt;NonTechnicalContribution -->
<g id="edge6" class="edge">
<title>ConstrainedProblem&#45;&gt;NonTechnicalContribution</title>
<path fill="none" stroke="#333333" d="M300.88,-259.12C307.19,-247.53 315.68,-231.96 322.9,-218.72"/>
<polygon fill="#333333" stroke="#333333" points="327.53,-210.21 326.7,-221.15 325.72,-213.53 322.74,-218.99 322.74,-218.99 322.74,-218.99 325.72,-213.53 318.79,-216.84 327.53,-210.21"/>
<text text-anchor="middle" x="320.7" y="-230.4" font-family="Times,serif" font-size="12.00">+</text>
</g>
<!-- ObjectiveTechnicalProblemFormulation -->
<g id="node8" class="node">
<title>ObjectiveTechnicalProblemFormulation</title>
<ellipse fill="white" stroke="black" cx="183.57" cy="-367.6" rx="179.57" ry="18"/>
<ellipse fill="none" stroke="black" cx="183.57" cy="-367.6" rx="183.57" ry="22"/>
<text text-anchor="middle" x="183.57" y="-363.4" font-family="Arial" font-size="14.00">ObjectiveTechnicalProblemFormulation</text>
</g>
<!-- ObjectiveTechnicalProblemFormulation&#45;&gt;WellFormed -->
<g id="edge8" class="edge">
<title>ObjectiveTechnicalProblemFormulation&#45;&gt;WellFormed</title>
<path fill="none" stroke="#333333" d="M181.52,-345.36C180.16,-331.16 178.35,-312.06 176.8,-295.2 174.45,-269.73 171.87,-240.72 170.04,-219.92"/>
<polygon fill="#333333" stroke="#333333" points="169.18,-210.21 174.54,-219.78 169.51,-213.98 170.06,-220.18 170.06,-220.18 170.06,-220.18 169.51,-213.98 165.58,-220.57 169.18,-210.21"/>
<text text-anchor="middle" x="180.18" y="-273.6" font-family="Times,serif" font-size="12.00">+</text>
</g>
<!-- ObjectiveTechnicalProblemFormulation&#45;&gt;ConstrainedProblem -->
<g id="edge7" class="edge">
<title>ObjectiveTechnicalProblemFormulation&#45;&gt;ConstrainedProblem</title>
<path fill="none" stroke="#333333" d="M209.43,-345.43C225.48,-332.29 246.13,-315.39 262.71,-301.82"/>
<polygon fill="#333333" stroke="#333333" points="270.02,-295.84 265.13,-305.65 267.09,-298.23 262.28,-302.17 262.28,-302.17 262.28,-302.17 267.09,-298.23 259.43,-298.69 270.02,-295.84"/>
<text text-anchor="middle" x="250.62" y="-316.8" font-family="Times,serif" font-size="12.00">+</text>
</g>
<!-- WouldHaveArrived -->
<g id="node9" class="node">
<title>WouldHaveArrived</title>
<ellipse fill="white" stroke="black" cx="401.57" cy="-462" rx="91.54" ry="18"/>
<ellipse fill="none" stroke="black" cx="401.57" cy="-462" rx="95.54" ry="22"/>
<text text-anchor="middle" x="401.57" y="-457.8" font-family="Arial" font-size="14.00">WouldHaveArrived</text>
</g>
<!-- WouldHaveArrived&#45;&gt;ObjectiveTechnicalProblemFormulation -->
<g id="edge10" class="edge">
<title>WouldHaveArrived&#45;&gt;ObjectiveTechnicalProblemFormulation</title>
<path fill="none" stroke="#333333" d="M356.92,-442.08C323.79,-428.03 278.29,-408.75 242.22,-393.46"/>
<polygon fill="#333333" stroke="#333333" points="233.44,-389.74 244.4,-389.5 236.92,-391.22 242.65,-393.64 242.65,-393.64 242.65,-393.64 236.92,-391.22 240.89,-397.79 233.44,-389.74"/>
<text text-anchor="middle" x="309" y="-411.2" font-family="Times,serif" font-size="12.00">+</text>
</g>
<!-- WouldModify -->
<g id="node10" class="node">
<title>WouldModify</title>
<polygon fill="white" stroke="black" points="482.02,-385.6 385.11,-385.6 385.11,-349.6 482.02,-349.6 482.02,-385.6"/>
<text text-anchor="middle" x="433.57" y="-363.4" font-family="Arial" font-size="14.00">WouldModify</text>
</g>
<!-- WouldHaveArrived&#45;&gt;WouldModify -->
<g id="edge9" class="edge">
<title>WouldHaveArrived&#45;&gt;WouldModify</title>
<path fill="none" stroke="#333333" d="M408.99,-439.57C413.45,-426.7 419.17,-410.18 423.97,-396.32"/>
<polygon fill="#333333" stroke="#333333" points="427.18,-387.05 428.16,-397.97 425.94,-390.62 423.9,-396.5 423.9,-396.5 423.9,-396.5 425.94,-390.62 419.65,-395.03 427.18,-387.05"/>
<text text-anchor="middle" x="422.87" y="-411.2" font-family="Times,serif" font-size="12.00">+</text>
</g>
<!-- WouldAdapt -->
<g id="node11" class="node">
<title>WouldAdapt</title>
<polygon fill="white" stroke="black" points="592.7,-385.6 500.43,-385.6 500.43,-349.6 592.7,-349.6 592.7,-385.6"/>
<text text-anchor="middle" x="546.57" y="-363.4" font-family="Arial" font-size="14.00">WouldAdapt</text>
</g>
<!-- WouldHaveArrived&#45;&gt;WouldAdapt -->
<g id="edge11" class="edge">
<title>WouldHaveArrived&#45;&gt;WouldAdapt</title>
<path fill="none" stroke="#333333" d="M433.03,-440.95C455.72,-426.49 486.42,-406.93 510.17,-391.79"/>
<polygon fill="#333333" stroke="#333333" points="518.52,-386.47 512.51,-395.64 515.33,-388.5 510.09,-391.84 510.09,-391.84 510.09,-391.84 515.33,-388.5 507.67,-388.05 518.52,-386.47"/>
<text text-anchor="middle" x="486.13" y="-411.2" font-family="Times,serif" font-size="12.00">+</text>
</g>
<!-- ObjectiveProblemSolved -->
<g id="node12" class="node">
<title>ObjectiveProblemSolved</title>
<polygon fill="white" stroke="black" points="358.96,-548.94 358.96,-563.86 284.92,-574.4 180.21,-574.4 106.17,-563.86 106.17,-548.94 180.21,-538.4 284.92,-538.4 358.96,-548.94"/>
<polygon fill="none" stroke="black" points="362.96,-545.47 362.96,-567.33 285.21,-578.4 179.93,-578.4 102.17,-567.33 102.17,-545.47 179.93,-534.4 285.21,-534.4 362.96,-545.47"/>
<text text-anchor="middle" x="232.57" y="-552.2" font-family="Arial" font-size="14.00">ObjectiveProblemSolved</text>
</g>
<!-- ObjectiveProblemSolved&#45;&gt;ObjectiveTechnicalProblemFormulation -->
<g id="edge13" class="edge">
<title>ObjectiveProblemSolved&#45;&gt;ObjectiveTechnicalProblemFormulation</title>
<path fill="none" stroke="#333333" d="M226.95,-533.97C218.37,-501.26 201.95,-438.67 191.95,-400.58"/>
<polygon fill="#333333" stroke="#333333" points="189.51,-391.24 196.4,-399.77 190.47,-394.9 192.04,-400.92 192.04,-400.92 192.04,-400.92 190.47,-394.9 187.69,-402.06 189.51,-391.24"/>
<text text-anchor="middle" x="217.12" y="-458.4" font-family="Times,serif" font-size="12.00">+</text>
</g>
<!-- ObjectiveProblemSolved&#45;&gt;WouldHaveArrived -->
<g id="edge12" class="edge">
<title>ObjectiveProblemSolved&#45;&gt;WouldHaveArrived</title>
<path fill="none" stroke="#333333" d="M271.76,-533.97C296.84,-520.26 329.47,-502.42 355.74,-488.06"/>
<polygon fill="#333333" stroke="#333333" points="364.4,-483.32 357.78,-492.07 361.08,-485.14 355.62,-488.12 355.62,-488.12 355.62,-488.12 361.08,-485.14 353.46,-484.17 364.4,-483.32"/>
<text text-anchor="middle" x="329.18" y="-505.6" font-family="Times,serif" font-size="12.00">&#45;</text>
</g>
</g>
</svg>
