<?xml version="1.0" encoding="UTF-8" standalone="no"?>
<!DOCTYPE svg PUBLIC "-//W3C//DTD SVG 1.1//EN"
 "http://www.w3.org/Graphics/SVG/1.1/DTD/svg11.dtd">
<!-- Generated by graphviz version 12.2.1 (20241206.2353)
 -->
<!-- Title: ExampleOTP — Sub&#45;ADM 2 Error Heatmap Pages: 1 -->
<svg width="417pt" height="549pt"
 viewBox="0.00 0.00 416.80 548.80" xmlns="http://www.w3.org/2000/svg" xmlns:xlink="http://www.w3.org/1999/xlink">
<g id="graph0" class="graph" transform="scale(1 1) rotate(0) translate(4 544.8)">
<title>ExampleOTP — Sub&#45;ADM 2 Error Heatmap</title>
<polygon fill="white" stroke="none" points="-4,4 -4,-544.8 412.8,-544.8 412.8,4 -4,4"/>
<!-- Encompassed -->
<g id="node1" class="node">
<title>Encompassed</title>
<polygon fill="#90ee90" stroke="black" points="177.25,-36 97.88,-36 97.88,0 177.25,0 177.25,-36"/>
<text text-anchor="middle" x="137.56" y="-15" font-family="Arial" font-size="10.00">Encompassed</text>
</g>
<!-- ScopeOfClaim -->
<g id="node2" class="node">
<title>ScopeOfClaim</title>
<polygon fill="#90ee90" stroke="black" points="275.8,-36 195.33,-36 195.33,0 275.8,0 275.8,-36"/>
<text text-anchor="middle" x="235.56" y="-15" font-family="Arial" font-size="10.00">ScopeOfClaim</text>
</g>
<!-- Hindsight -->
<g id="node3" class="node">
<title>Hindsight</title>
<polygon fill="#90ee90" stroke="black" points="112.41,-118.8 54.72,-118.8 54.72,-82.8 112.41,-82.8 112.41,-118.8"/>
<text text-anchor="middle" x="83.56" y="-97.8" font-family="Arial" font-size="10.00">Hindsight</text>
</g>
<!-- BasicFormulation -->
<g id="node4" class="node">
<title>BasicFormulation</title>
<ellipse fill="#90ee90" stroke="black" cx="186.56" cy="-100.8" rx="56.08" ry="18"/>
<text text-anchor="middle" x="186.56" y="-97.8" font-family="Arial" font-size="10.00">BasicFormulation</text>
</g>
<!-- BasicFormulation&#45;&gt;Encompassed -->
<g id="edge1" class="edge">
<title>BasicFormulation&#45;&gt;Encompassed</title>
<path fill="none" stroke="#333333" d="M176.17,-82.66C169.66,-71.92 161.12,-57.84 153.73,-45.66"/>
<polygon fill="#333333" stroke="#333333" points="148.74,-37.43 157.78,-43.65 150.7,-40.66 153.93,-45.98 153.93,-45.98 153.93,-45.98 150.7,-40.66 150.08,-48.32 148.74,-37.43"/>
<text text-anchor="middle" x="167.54" y="-56.7" font-family="Times,serif" font-size="9.00">+</text>
</g>
<!-- BasicFormulation&#45;&gt;ScopeOfClaim -->
<g id="edge2" class="edge">
<title>BasicFormulation&#45;&gt;ScopeOfClaim</title>
<path fill="none" stroke="#333333" d="M196.96,-82.66C203.47,-71.92 212.01,-57.84 219.4,-45.66"/>
<polygon fill="#333333" stroke="#333333" points="224.39,-37.43 223.05,-48.32 222.43,-40.66 219.2,-45.98 219.2,-45.98 219.2,-45.98 222.43,-40.66 215.35,-43.65 224.39,-37.43"/>
<text text-anchor="middle" x="216.54" y="-56.7" font-family="Times,serif" font-size="9.00">+</text>
</g>
<!-- WellFormed -->
<g id="node5" class="node">
<title>WellFormed</title>
<ellipse fill="#90ee90" stroke="black" cx="98.56" cy="-183.6" rx="42.03" ry="18"/>
<text text-anchor="middle" x="98.56" y="-180.6" font-family="Arial" font-size="10.00">WellFormed</text>
</g>
<!-- WellFormed&#45;&gt;Hindsight -->
<g id="edge3" class="edge">
<title>WellFormed&#45;&gt;Hindsight</title>
<path fill="none" stroke="#333333" d="M95.38,-165.46C93.47,-155.14 90.98,-141.75 88.78,-129.91"/>
<polygon fill="#333333" stroke="#333333" points="87.02,-120.39 93.27,-129.4 87.71,-124.11 88.84,-130.22 88.84,-130.22 88.84,-130.22 87.71,-124.11 84.42,-131.04 87.02,-120.39"/>
<text text-anchor="middle" x="95.34" y="-139.5" font-family="Times,serif" font-size="9.00">−</text>
</g>
<!-- WellFormed&#45;&gt;BasicFormulation -->
<g id="edge4" class="edge">
<title>WellFormed&#45;&gt;BasicFormulation</title>
<path fill="none" stroke="#333333" d="M115.53,-167.02C128.31,-155.29 146.05,-139 160.6,-125.64"/>
<polygon fill="#333333" stroke="#333333" points="167.85,-118.99 163.52,-129.07 165.06,-121.54 160.48,-125.75 160.48,-125.75 160.48,-125.75 165.06,-121.54 157.44,-122.44 167.85,-118.99"/>
<text text-anchor="middle" x="150.37" y="-139.5" font-family="Times,serif" font-size="9.00">+</text>
</g>
<!-- ConstrainedProblem -->
<g id="node6" class="node">
<title>ConstrainedProblem</title>
<ellipse fill="#90ee90" stroke="black" cx="186.56" cy="-266.4" rx="64.44" ry="18"/>
<text text-anchor="middle" x="186.56" y="-263.4" font-family="Arial" font-size="10.00">ConstrainedProblem</text>
</g>
<!-- ConstrainedProblem&#45;&gt;WellFormed -->
<g id="edge5" class="edge">
<title>ConstrainedProblem&#45;&gt;WellFormed</title>
<path fill="none" stroke="#333333" d="M168.33,-248.66C155.45,-236.83 138.03,-220.84 123.82,-207.79"/>
<polygon fill="#333333" stroke="#333333" points="116.77,-201.32 127.18,-204.77 119.56,-203.88 124.14,-208.08 124.14,-208.08 124.14,-208.08 119.56,-203.88 121.1,-211.4 116.77,-201.32"/>
<text text-anchor="middle" x="150.37" y="-222.3" font-family="Times,serif" font-size="9.00">+</text>
</g>
<!-- NonTechnicalContribution -->
<g id="node7" class="node">
<title>NonTechnicalContribution</title>
<polygon fill="#90ee90" stroke="black" points="290.1,-201.6 159.03,-201.6 159.03,-165.6 290.1,-165.6 290.1,-201.6"/>
<text text-anchor="middle" x="224.56" y="-180.6" font-family="Arial" font-size="10.00">NonTechnicalContribution</text>
</g>
<!-- ConstrainedProblem&#45;&gt;NonTechnicalContribution -->
<g id="edge6" class="edge">
<title>ConstrainedProblem&#45;&gt;NonTechnicalContribution</title>
<path fill="none" stroke="#333333" d="M194.62,-248.26C199.58,-237.73 206.04,-224 211.69,-211.98"/>
<polygon fill="#333333" stroke="#333333" points="215.87,-203.09 215.68,-214.06 214.26,-206.51 211.61,-212.14 211.61,-212.14 211.61,-212.14 214.26,-206.51 207.54,-210.23 215.87,-203.09"/>
<text text-anchor="middle" x="210.38" y="-222.3" font-family="Times,serif" font-size="9.00">+</text>
</g>
<!-- ObjectiveTechnicalProblemFormulation -->
<g id="node8" class="node">
<title>ObjectiveTechnicalProblemFormulation</title>
<ellipse fill="#90ee90" stroke="black" cx="114.56" cy="-349.2" rx="114.56" ry="18"/>
<text text-anchor="middle" x="114.56" y="-346.2" font-family="Arial" font-size="10.00">ObjectiveTechnicalProblemFormulation</text>
</g>
<!-- ObjectiveTechnicalProblemFormulation&#45;&gt;WellFormed -->
<g id="edge8" class="edge">
<title>ObjectiveTechnicalProblemFormulation&#45;&gt;WellFormed</title>
<path fill="none" stroke="#333333" d="M112.88,-331C110.14,-302.97 104.68,-247.14 101.35,-213.11"/>
<polygon fill="#333333" stroke="#333333" points="100.39,-203.27 105.84,-212.79 100.76,-207.04 101.36,-213.23 101.36,-213.23 101.36,-213.23 100.76,-207.04 96.89,-213.66 100.39,-203.27"/>
<text text-anchor="middle" x="110.69" y="-263.7" font-family="Times,serif" font-size="9.00">+</text>
</g>
<!-- ObjectiveTechnicalProblemFormulation&#45;&gt;ConstrainedProblem -->
<g id="edge7" class="edge">
<title>ObjectiveTechnicalProblemFormulation&#45;&gt;ConstrainedProblem</title>
<path fill="none" stroke="#333333" d="M129.83,-331.06C139.83,-319.85 153.06,-305 164.23,-292.47"/>
<polygon fill="#333333" stroke="#333333" points="170.75,-285.14 167.46,-295.6 168.24,-287.97 164.1,-292.61 164.1,-292.61 164.1,-292.61 168.24,-287.97 160.74,-289.62 170.75,-285.14"/>
<text text-anchor="middle" x="157.41" y="-305.1" font-family="Times,serif" font-size="9.00">+</text>
</g>
<!-- WouldHaveArrived -->
<g id="node9" class="node">
<title>WouldHaveArrived</title>
<ellipse fill="#90ee90" stroke="black" cx="262.56" cy="-432" rx="59.75" ry="18"/>
<text text-anchor="middle" x="262.56" y="-429" font-family="Arial" font-size="10.00">WouldHaveArrived</text>
</g>
<!-- WouldHaveArrived&#45;&gt;ObjectiveTechnicalProblemFormulation -->
<g id="edge10" class="edge">
<title>WouldHaveArrived&#45;&gt;ObjectiveTechnicalProblemFormulation</title>
<path fill="none" stroke="#333333" d="M234.73,-415.8C212.25,-403.53 180.33,-386.1 155.03,-372.29"/>
<polygon fill="#333333" stroke="#333333" points="146.41,-367.59 157.35,-368.43 149.73,-369.4 155.19,-372.38 155.19,-372.38 155.19,-372.38 149.73,-369.4 153.03,-376.33 146.41,-367.59"/>
<text text-anchor="middle" x="199.96" y="-387.9" font-family="Times,serif" font-size="9.00">+</text>
</g>
<!-- WouldModify -->
<g id="node10" class="node">
<title>WouldModify</title>
<polygon fill="#90ee90" stroke="black" points="320.46,-367.2 246.67,-367.2 246.67,-331.2 320.46,-331.2 320.46,-367.2"/>
<text text-anchor="middle" x="283.56" y="-346.2" font-family="Arial" font-size="10.00">WouldModify</text>
</g>
<!-- WouldHaveArrived&#45;&gt;WouldModify -->
<g id="edge9" class="edge">
<title>WouldHaveArrived&#45;&gt;WouldModify</title>
<path fill="none" stroke="#333333" d="M267.02,-413.86C269.7,-403.54 273.18,-390.15 276.26,-378.31"/>
<polygon fill="#333333" stroke="#333333" points="278.74,-368.77 280.58,-379.58 277.79,-372.43 276.22,-378.45 276.22,-378.45 276.22,-378.45 277.79,-372.43 271.87,-377.32 278.74,-368.77"/>
<text text-anchor="middle" x="276.86" y="-387.9" font-family="Times,serif" font-size="9.00">+</text>
</g>
<!-- WouldAdapt -->
<g id="node11" class="node">
<title>WouldAdapt</title>
<polygon fill="#90ee90" stroke="black" points="408.8,-367.2 338.33,-367.2 338.33,-331.2 408.8,-331.2 408.8,-367.2"/>
<text text-anchor="middle" x="373.56" y="-346.2" font-family="Arial" font-size="10.00">WouldAdapt</text>
</g>
<!-- WouldHaveArrived&#45;&gt;WouldAdapt -->
<g id="edge11" class="edge">
<title>WouldHaveArrived&#45;&gt;WouldAdapt</title>
<path fill="none" stroke="#333333" d="M284.76,-414.84C300.82,-403.16 322.77,-387.17 340.83,-374.03"/>
<polygon fill="#333333" stroke="#333333" points="348.89,-368.16 343.45,-377.69 345.83,-370.39 340.8,-374.05 340.8,-374.05 340.8,-374.05 345.83,-370.39 338.15,-370.41 348.89,-368.16"/>
<text text-anchor="middle" x="327.25" y="-387.9" font-family="Times,serif" font-size="9.00">+</text>
</g>
<!-- ObjectiveProblemSolved -->
<g id="node12" class="node">
<title>ObjectiveProblemSolved</title>
<polygon fill="#90ee90" stroke="black" points="234.25,-511.34 234.25,-526.26 186.4,-536.8 118.73,-536.8 70.88,-526.26 70.88,-511.34 118.73,-500.8 186.4,-500.8 234.25,-511.34"/>
<polygon fill="none" stroke="black" points="238.25,-508.13 238.25,-529.47 186.83,-540.8 118.29,-540.8 66.88,-529.47 66.88,-508.13 118.29,-496.8 186.83,-496.8 238.25,-508.13"/>
<text text-anchor="middle" x="152.56" y="-515.8" font-family="Arial" font-size="10.00">ObjectiveProblemSolved</text>
</g>
<!-- ObjectiveProblemSolved&#45;&gt;ObjectiveTechnicalProblemFormulation -->
<g id="edge13" class="edge">
<title>ObjectiveProblemSolved&#45;&gt;ObjectiveTechnicalProblemFormulation</title>
<path fill="none" stroke="#333333" d="M147.75,-496.57C140.93,-466.47 128.43,-411.35 120.87,-378.02"/>
<polygon fill="#333333" stroke="#333333" points="118.69,-368.4 125.29,-377.16 119.53,-372.09 120.9,-378.15 120.9,-378.15 120.9,-378.15 119.53,-372.09 116.51,-379.15 118.69,-368.4"/>
<text text-anchor="middle" x="139.26" y="-429.3" font-family="Times,serif" font-size="9.00">+</text>
</g>
<!-- ObjectiveProblemSolved&#45;&gt;WouldHaveArrived -->
<g id="edge12" class="edge">
<title>ObjectiveProblemSolved&#45;&gt;WouldHaveArrived</title>
<path fill="none" stroke="#333333" d="M180.32,-496.4C196.33,-484.06 216.44,-468.55 232.78,-455.96"/>
<polygon fill="#333333" stroke="#333333" points="240.45,-450.05 235.28,-459.72 237.45,-452.36 232.53,-456.16 232.53,-456.16 232.53,-456.16 237.45,-452.36 229.78,-452.59 240.45,-450.05"/>
<text text-anchor="middle" x="217.53" y="-470.7" font-family="Times,serif" font-size="9.00">−</text>
</g>
</g>
</svg>
